<?xml version="1.0" encoding="us-ascii" standalone="no"?><svg xmlns="http://www.w3.org/2000/svg" xmlns:xlink="http://www.w3.org/1999/xlink" contentStyleType="text/css" height="1201px" preserveAspectRatio="none" style="width:1160px;height:1201px;background:#FFFFFF;" version="1.1" viewBox="0 0 1160 1201" width="1160px" zoomAndPan="magnify"><defs/><g><!--class models.Bird.Bird--><g id="elem_models.Bird.Bird"><rect codeLine="5" fill="#FFFFFF" height="386.2344" id="models.Bird.Bird" rx="2.5" ry="2.5" style="stroke:#000000;stroke-width:1.0;" width="292" x="12" y="182"/><ellipse cx="139.75" cy="196" fill="#FFFFFF" rx="9" ry="9" style="stroke:#000000;stroke-width:1.0;"/><path d="M142.0938,191.6719 C141.1563,191.2344 140.5625,191.0938 139.6875,191.0938 C137.0625,191.0938 135.0625,193.1719 135.0625,195.8906 L135.0625,197.0156 C135.0625,199.5938 137.1719,201.4844 140.0625,201.4844 C141.2813,201.4844 142.4375,201.1875 143.1875,200.6406 C143.7656,200.2344 144.0938,199.7813 144.0938,199.3906 C144.0938,198.9375 143.7031,198.5469 143.2344,198.5469 C143.0156,198.5469 142.8125,198.625 142.625,198.8125 C142.1719,199.2969 142.1719,199.2969 141.9844,199.3906 C141.5625,199.6563 140.875,199.7813 140.1094,199.7813 C138.0625,199.7813 136.7656,198.6875 136.7656,196.9844 L136.7656,195.8906 C136.7656,194.1094 138.0156,192.7969 139.75,192.7969 C140.3281,192.7969 140.9375,192.9531 141.4063,193.2031 C141.8906,193.4844 142.0625,193.7031 142.1563,194.1094 C142.2188,194.5156 142.25,194.6406 142.3906,194.7656 C142.5313,194.9063 142.7656,195.0156 142.9844,195.0156 C143.25,195.0156 143.5156,194.875 143.6875,194.6563 C143.7969,194.5 143.8281,194.3125 143.8281,193.8906 L143.8281,192.4688 C143.8281,192.0313 143.8125,191.9063 143.7188,191.75 C143.5625,191.4844 143.2813,191.3438 142.9844,191.3438 C142.6875,191.3438 142.4844,191.4375 142.2656,191.75 L142.0938,191.6719 Z " fill="#000000"/><text fill="#000000" font-family="Verdana" font-size="14" lengthAdjust="spacing" textLength="29" x="157.25" y="200.8467">Bird</text><line style="stroke:#000000;stroke-width:1.0;" x1="13" x2="303" y1="210" y2="210"/><text fill="#000000" font-family="Verdana" font-size="14" lengthAdjust="spacing" textLength="280" x="18" y="226.9951">+ANIMATION_UPDATE_FREQUENCY : int</text><text fill="#000000" font-family="Verdana" font-size="14" lengthAdjust="spacing" textLength="107" x="18" y="243.292">+GRAVITY : int</text><text fill="#000000" font-family="Verdana" font-size="14" lengthAdjust="spacing" textLength="155" x="18" y="259.5889">+JUMP_VELOCITY : int</text><text fill="#000000" font-family="Verdana" font-size="14" lengthAdjust="spacing" textLength="96" x="18" y="275.8857">+SPRITE : list</text><text fill="#000000" font-family="Verdana" font-size="14" lengthAdjust="spacing" textLength="166" x="18" y="292.1826">+animation_frame : int</text><text fill="#000000" font-family="Verdana" font-size="14" lengthAdjust="spacing" textLength="80" x="18" y="308.4795">+bird : img</text><text fill="#000000" font-family="Verdana" font-size="14" lengthAdjust="spacing" textLength="234" x="18" y="324.7764">+bird_rotation : float, NoneType</text><text fill="#000000" font-family="Verdana" font-size="14" lengthAdjust="spacing" textLength="132" x="18" y="341.0732">+is_jumping : bool</text><text fill="#000000" font-family="Verdana" font-size="14" lengthAdjust="spacing" textLength="194" x="18" y="357.3701">+rotation_multiplier : float</text><text fill="#000000" font-family="Verdana" font-size="14" lengthAdjust="spacing" textLength="101" x="18" y="373.667">+velocity : int</text><text fill="#000000" font-family="Verdana" font-size="14" lengthAdjust="spacing" textLength="52" x="18" y="389.9639">+x : int</text><text fill="#000000" font-family="Verdana" font-size="14" lengthAdjust="spacing" textLength="52" x="18" y="406.2607">+y : int</text><line style="stroke:#000000;stroke-width:1.0;" x1="13" x2="303" y1="413.5625" y2="413.5625"/><text fill="#000000" font-family="Verdana" font-size="14" lengthAdjust="spacing" textLength="183" x="18" y="430.5576">+animate_wings(counter)</text><text fill="#000000" font-family="Verdana" font-size="14" lengthAdjust="spacing" textLength="190" x="18" y="446.8545">+check_for_collision(pipe)</text><text fill="#000000" font-family="Verdana" font-size="14" lengthAdjust="spacing" textLength="108" x="18" y="463.1514">+draw(window)</text><text fill="#000000" font-family="Verdana" font-size="14" lengthAdjust="spacing" textLength="156" x="18" y="479.4482">+draw_static(window)</text><text fill="#000000" font-family="Verdana" font-size="14" lengthAdjust="spacing" textLength="91" x="18" y="495.7451">+get_mask()</text><text fill="#000000" font-family="Verdana" font-size="14" lengthAdjust="spacing" textLength="112" x="18" y="512.042">+get_position()</text><text fill="#000000" font-family="Verdana" font-size="14" lengthAdjust="spacing" textLength="251" x="18" y="528.3389">+is_out_of_bounds(window_height)</text><text fill="#000000" font-family="Verdana" font-size="14" lengthAdjust="spacing" textLength="57" x="18" y="544.6357">+jump()</text><text fill="#000000" font-family="Verdana" font-size="14" lengthAdjust="spacing" textLength="193" x="18" y="560.9326">+scale_animation_frames()</text></g><!--class controller.Controller--><g id="elem_controller.Controller"><rect codeLine="28" fill="#FFFFFF" height="549.2031" id="controller.Controller" rx="2.5" ry="2.5" style="stroke:#000000;stroke-width:1.0;" width="235" x="589.5" y="645"/><ellipse cx="666.75" cy="659" fill="#FFFFFF" rx="9" ry="9" style="stroke:#000000;stroke-width:1.0;"/><path d="M669.0938,654.6719 C668.1563,654.2344 667.5625,654.0938 666.6875,654.0938 C664.0625,654.0938 662.0625,656.1719 662.0625,658.8906 L662.0625,660.0156 C662.0625,662.5938 664.1719,664.4844 667.0625,664.4844 C668.2813,664.4844 669.4375,664.1875 670.1875,663.6406 C670.7656,663.2344 671.0938,662.7813 671.0938,662.3906 C671.0938,661.9375 670.7031,661.5469 670.2344,661.5469 C670.0156,661.5469 669.8125,661.625 669.625,661.8125 C669.1719,662.2969 669.1719,662.2969 668.9844,662.3906 C668.5625,662.6563 667.875,662.7813 667.1094,662.7813 C665.0625,662.7813 663.7656,661.6875 663.7656,659.9844 L663.7656,658.8906 C663.7656,657.1094 665.0156,655.7969 666.75,655.7969 C667.3281,655.7969 667.9375,655.9531 668.4063,656.2031 C668.8906,656.4844 669.0625,656.7031 669.1563,657.1094 C669.2188,657.5156 669.25,657.6406 669.3906,657.7656 C669.5313,657.9063 669.7656,658.0156 669.9844,658.0156 C670.25,658.0156 670.5156,657.875 670.6875,657.6563 C670.7969,657.5 670.8281,657.3125 670.8281,656.8906 L670.8281,655.4688 C670.8281,655.0313 670.8125,654.9063 670.7188,654.75 C670.5625,654.4844 670.2813,654.3438 669.9844,654.3438 C669.6875,654.3438 669.4844,654.4375 669.2656,654.75 L669.0938,654.6719 Z " fill="#000000"/><text fill="#000000" font-family="Verdana" font-size="14" lengthAdjust="spacing" textLength="73" x="684.25" y="663.8467">Controller</text><line style="stroke:#000000;stroke-width:1.0;" x1="590.5" x2="823.5" y1="673" y2="673"/><text fill="#000000" font-family="Verdana" font-size="14" lengthAdjust="spacing" textLength="122" x="595.5" y="689.9951">+BG_COLOR : str</text><text fill="#000000" font-family="Verdana" font-size="14" lengthAdjust="spacing" textLength="106" x="595.5" y="706.292">+BG_IMG : img</text><text fill="#000000" font-family="Verdana" font-size="14" lengthAdjust="spacing" textLength="107" x="595.5" y="722.5889">+CAPTION : str</text><text fill="#000000" font-family="Verdana" font-size="14" lengthAdjust="spacing" textLength="114" x="595.5" y="738.8857">+FPS_LIMIT : int</text><text fill="#000000" font-family="Verdana" font-size="14" lengthAdjust="spacing" textLength="135" x="595.5" y="755.1826">+GAME_ICON : img</text><text fill="#000000" font-family="Verdana" font-size="14" lengthAdjust="spacing" textLength="107" x="595.5" y="771.4795">+GRAVITY : int</text><text fill="#000000" font-family="Verdana" font-size="14" lengthAdjust="spacing" textLength="111" x="595.5" y="787.7764">+HEIGHT : float</text><text fill="#000000" font-family="Verdana" font-size="14" lengthAdjust="spacing" textLength="223" x="595.5" y="804.0732">+PIPES_ARRAY : NoneType, list</text><text fill="#000000" font-family="Verdana" font-size="14" lengthAdjust="spacing" textLength="112" x="595.5" y="820.3701">+PIPE_GAP : int</text><text fill="#000000" font-family="Verdana" font-size="14" lengthAdjust="spacing" textLength="145" x="595.5" y="836.667">+PIPE_SPACING : int</text><text fill="#000000" font-family="Verdana" font-size="14" lengthAdjust="spacing" textLength="203" x="595.5" y="852.9639">+PLAYER_CHARACTER : Bird</text><text fill="#000000" font-family="Verdana" font-size="14" lengthAdjust="spacing" textLength="122" x="595.5" y="869.2607">+SCORE : SCORE</text><text fill="#000000" font-family="Verdana" font-size="14" lengthAdjust="spacing" textLength="177" x="595.5" y="885.5576">+SCORE_FONT_SIZE : int</text><text fill="#000000" font-family="Verdana" font-size="14" lengthAdjust="spacing" textLength="157" x="595.5" y="901.8545">+SCORE_MARGIN : int</text><text fill="#000000" font-family="Verdana" font-size="14" lengthAdjust="spacing" textLength="95" x="595.5" y="918.1514">+VIEW : View</text><text fill="#000000" font-family="Verdana" font-size="14" lengthAdjust="spacing" textLength="106" x="595.5" y="934.4482">+WIDTH : float</text><text fill="#000000" font-family="Verdana" font-size="14" lengthAdjust="spacing" textLength="124" x="595.5" y="950.7451">+X_GRAVITY : int</text><text fill="#000000" font-family="Verdana" font-size="14" lengthAdjust="spacing" textLength="136" x="595.5" y="967.042">+background : img</text><text fill="#000000" font-family="Verdana" font-size="14" lengthAdjust="spacing" textLength="100" x="595.5" y="983.3389">+counter : int</text><text fill="#000000" font-family="Verdana" font-size="14" lengthAdjust="spacing" textLength="135" x="595.5" y="999.6357">+game_over : bool</text><text fill="#000000" font-family="Verdana" font-size="14" lengthAdjust="spacing" textLength="125" x="595.5" y="1015.9326">+is_paused : bool</text><text fill="#000000" font-family="Verdana" font-size="14" lengthAdjust="spacing" textLength="196" x="595.5" y="1032.2295">+last_pipe : PipeGenerator</text><text fill="#000000" font-family="Verdana" font-size="14" lengthAdjust="spacing" textLength="219" x="595.5" y="1048.5264">+pipe_total_width : NoneType</text><text fill="#000000" font-family="Verdana" font-size="14" lengthAdjust="spacing" textLength="110" x="595.5" y="1064.8232">+running : bool</text><line style="stroke:#000000;stroke-width:1.0;" x1="590.5" x2="823.5" y1="1072.125" y2="1072.125"/><text fill="#000000" font-family="Verdana" font-size="14" lengthAdjust="spacing" textLength="134" x="595.5" y="1089.1201">+generate_pipes()</text><text fill="#000000" font-family="Verdana" font-size="14" lengthAdjust="spacing" textLength="125" x="595.5" y="1105.417">+handle_events()</text><text fill="#000000" font-family="Verdana" font-size="14" lengthAdjust="spacing" textLength="159" x="595.5" y="1121.7139">+increment_counter()</text><text fill="#000000" font-family="Verdana" font-size="14" lengthAdjust="spacing" textLength="134" x="595.5" y="1138.0107">+initialize_assets()</text><text fill="#000000" font-family="Verdana" font-size="14" lengthAdjust="spacing" textLength="51" x="595.5" y="1154.3076">+play()</text><text fill="#000000" font-family="Verdana" font-size="14" lengthAdjust="spacing" textLength="49" x="595.5" y="1170.6045">+quit()</text><text fill="#000000" font-family="Verdana" font-size="14" lengthAdjust="spacing" textLength="71" x="595.5" y="1186.9014">+restart()</text></g><!--class models.LowerPipe.LowerPipe--><g id="elem_models.LowerPipe.LowerPipe"><rect codeLine="62" fill="#FFFFFF" height="60.2969" id="models.LowerPipe.LowerPipe" rx="2.5" ry="2.5" style="stroke:#000000;stroke-width:1.0;" width="103" x="600.5" y="28.5"/><ellipse cx="613.5" cy="42.5" fill="#FFFFFF" rx="9" ry="9" style="stroke:#000000;stroke-width:1.0;"/><path d="M615.8438,38.1719 C614.9063,37.7344 614.3125,37.5938 613.4375,37.5938 C610.8125,37.5938 608.8125,39.6719 608.8125,42.3906 L608.8125,43.5156 C608.8125,46.0938 610.9219,47.9844 613.8125,47.9844 C615.0313,47.9844 616.1875,47.6875 616.9375,47.1406 C617.5156,46.7344 617.8438,46.2813 617.8438,45.8906 C617.8438,45.4375 617.4531,45.0469 616.9844,45.0469 C616.7656,45.0469 616.5625,45.125 616.375,45.3125 C615.9219,45.7969 615.9219,45.7969 615.7344,45.8906 C615.3125,46.1563 614.625,46.2813 613.8594,46.2813 C611.8125,46.2813 610.5156,45.1875 610.5156,43.4844 L610.5156,42.3906 C610.5156,40.6094 611.7656,39.2969 613.5,39.2969 C614.0781,39.2969 614.6875,39.4531 615.1563,39.7031 C615.6406,39.9844 615.8125,40.2031 615.9063,40.6094 C615.9688,41.0156 616,41.1406 616.1406,41.2656 C616.2813,41.4063 616.5156,41.5156 616.7344,41.5156 C617,41.5156 617.2656,41.375 617.4375,41.1563 C617.5469,41 617.5781,40.8125 617.5781,40.3906 L617.5781,38.9688 C617.5781,38.5313 617.5625,38.4063 617.4688,38.25 C617.3125,37.9844 617.0313,37.8438 616.7344,37.8438 C616.4375,37.8438 616.2344,37.9375 616.0156,38.25 L615.8438,38.1719 Z " fill="#000000"/><text fill="#000000" font-family="Verdana" font-size="14" lengthAdjust="spacing" textLength="75" x="625.5" y="47.3467">LowerPipe</text><line style="stroke:#000000;stroke-width:1.0;" x1="601.5" x2="702.5" y1="56.5" y2="56.5"/><text fill="#000000" font-family="Verdana" font-size="14" lengthAdjust="spacing" textLength="52" x="606.5" y="73.4951">+y : int</text><line style="stroke:#000000;stroke-width:1.0;" x1="601.5" x2="702.5" y1="80.7969" y2="80.7969"/></g><!--class models.Pipe.Pipe--><g id="elem_models.Pipe.Pipe"><rect codeLine="65" fill="#FFFFFF" height="255.8594" id="models.Pipe.Pipe" rx="2.5" ry="2.5" style="stroke:#000000;stroke-width:1.0;" width="124" x="339" y="247"/><ellipse cx="381.25" cy="261" fill="#FFFFFF" rx="9" ry="9" style="stroke:#000000;stroke-width:1.0;"/><path d="M383.5938,256.6719 C382.6563,256.2344 382.0625,256.0938 381.1875,256.0938 C378.5625,256.0938 376.5625,258.1719 376.5625,260.8906 L376.5625,262.0156 C376.5625,264.5938 378.6719,266.4844 381.5625,266.4844 C382.7813,266.4844 383.9375,266.1875 384.6875,265.6406 C385.2656,265.2344 385.5938,264.7813 385.5938,264.3906 C385.5938,263.9375 385.2031,263.5469 384.7344,263.5469 C384.5156,263.5469 384.3125,263.625 384.125,263.8125 C383.6719,264.2969 383.6719,264.2969 383.4844,264.3906 C383.0625,264.6563 382.375,264.7813 381.6094,264.7813 C379.5625,264.7813 378.2656,263.6875 378.2656,261.9844 L378.2656,260.8906 C378.2656,259.1094 379.5156,257.7969 381.25,257.7969 C381.8281,257.7969 382.4375,257.9531 382.9063,258.2031 C383.3906,258.4844 383.5625,258.7031 383.6563,259.1094 C383.7188,259.5156 383.75,259.6406 383.8906,259.7656 C384.0313,259.9063 384.2656,260.0156 384.4844,260.0156 C384.75,260.0156 385.0156,259.875 385.1875,259.6563 C385.2969,259.5 385.3281,259.3125 385.3281,258.8906 L385.3281,257.4688 C385.3281,257.0313 385.3125,256.9063 385.2188,256.75 C385.0625,256.4844 384.7813,256.3438 384.4844,256.3438 C384.1875,256.3438 383.9844,256.4375 383.7656,256.75 L383.5938,256.6719 Z " fill="#000000"/><text fill="#000000" font-family="Verdana" font-size="14" lengthAdjust="spacing" textLength="32" x="398.75" y="265.8467">Pipe</text><line style="stroke:#000000;stroke-width:1.0;" x1="340" x2="462" y1="275" y2="275"/><text fill="#000000" font-family="Verdana" font-size="14" lengthAdjust="spacing" textLength="91" x="345" y="291.9951">+height : int</text><text fill="#000000" font-family="Verdana" font-size="14" lengthAdjust="spacing" textLength="111" x="345" y="308.292">+pipe_end : int</text><text fill="#000000" font-family="Verdana" font-size="14" lengthAdjust="spacing" textLength="111" x="345" y="324.5889">+pipe_mid : int</text><text fill="#000000" font-family="Verdana" font-size="14" lengthAdjust="spacing" textLength="101" x="345" y="340.8857">+velocity : int</text><text fill="#000000" font-family="Verdana" font-size="14" lengthAdjust="spacing" textLength="52" x="345" y="357.1826">+x : int</text><text fill="#000000" font-family="Verdana" font-size="14" lengthAdjust="spacing" textLength="52" x="345" y="373.4795">+y : int</text><line style="stroke:#000000;stroke-width:1.0;" x1="340" x2="462" y1="380.7813" y2="380.7813"/><text fill="#000000" font-family="Verdana" font-size="14" lengthAdjust="spacing" textLength="108" x="345" y="397.7764">+draw(window)</text><text fill="#000000" font-family="Verdana" font-size="14" lengthAdjust="spacing" textLength="100" x="345" y="414.0732">+get_height()</text><text fill="#000000" font-family="Verdana" font-size="14" lengthAdjust="spacing" textLength="98" x="345" y="430.3701">+get_masks()</text><text fill="#000000" font-family="Verdana" font-size="14" lengthAdjust="spacing" textLength="112" x="345" y="446.667">+get_position()</text><text fill="#000000" font-family="Verdana" font-size="14" lengthAdjust="spacing" textLength="93" x="345" y="462.9639">+get_width()</text><text fill="#000000" font-family="Verdana" font-size="14" lengthAdjust="spacing" textLength="61" x="345" y="479.2607">+get_x()</text><text fill="#000000" font-family="Verdana" font-size="14" lengthAdjust="spacing" textLength="61" x="345" y="495.5576">+get_y()</text></g><!--class models.PipeGenerator.PipeGenerator--><g id="elem_models.PipeGenerator.PipeGenerator"><rect codeLine="80" fill="#FFFFFF" height="369.9375" id="models.PipeGenerator.PipeGenerator" rx="2.5" ry="2.5" style="stroke:#000000;stroke-width:1.0;" width="195" x="958.5" y="190"/><ellipse cx="999.25" cy="204" fill="#FFFFFF" rx="9" ry="9" style="stroke:#000000;stroke-width:1.0;"/><path d="M1001.5938,199.6719 C1000.6563,199.2344 1000.0625,199.0938 999.1875,199.0938 C996.5625,199.0938 994.5625,201.1719 994.5625,203.8906 L994.5625,205.0156 C994.5625,207.5938 996.6719,209.4844 999.5625,209.4844 C1000.7813,209.4844 1001.9375,209.1875 1002.6875,208.6406 C1003.2656,208.2344 1003.5938,207.7813 1003.5938,207.3906 C1003.5938,206.9375 1003.2031,206.5469 1002.7344,206.5469 C1002.5156,206.5469 1002.3125,206.625 1002.125,206.8125 C1001.6719,207.2969 1001.6719,207.2969 1001.4844,207.3906 C1001.0625,207.6563 1000.375,207.7813 999.6094,207.7813 C997.5625,207.7813 996.2656,206.6875 996.2656,204.9844 L996.2656,203.8906 C996.2656,202.1094 997.5156,200.7969 999.25,200.7969 C999.8281,200.7969 1000.4375,200.9531 1000.9063,201.2031 C1001.3906,201.4844 1001.5625,201.7031 1001.6563,202.1094 C1001.7188,202.5156 1001.75,202.6406 1001.8906,202.7656 C1002.0313,202.9063 1002.2656,203.0156 1002.4844,203.0156 C1002.75,203.0156 1003.0156,202.875 1003.1875,202.6563 C1003.2969,202.5 1003.3281,202.3125 1003.3281,201.8906 L1003.3281,200.4688 C1003.3281,200.0313 1003.3125,199.9063 1003.2188,199.75 C1003.0625,199.4844 1002.7813,199.3438 1002.4844,199.3438 C1002.1875,199.3438 1001.9844,199.4375 1001.7656,199.75 L1001.5938,199.6719 Z " fill="#000000"/><text fill="#000000" font-family="Verdana" font-size="14" lengthAdjust="spacing" textLength="106" x="1016.75" y="208.8467">PipeGenerator</text><line style="stroke:#000000;stroke-width:1.0;" x1="959.5" x2="1152.5" y1="218" y2="218"/><text fill="#000000" font-family="Verdana" font-size="14" lengthAdjust="spacing" textLength="71" x="964.5" y="234.9951">+gap : int</text><text fill="#000000" font-family="Verdana" font-size="14" lengthAdjust="spacing" textLength="94" x="964.5" y="251.292">+gravity : int</text><text fill="#000000" font-family="Verdana" font-size="14" lengthAdjust="spacing" textLength="91" x="964.5" y="267.5889">+height : int</text><text fill="#000000" font-family="Verdana" font-size="14" lengthAdjust="spacing" textLength="178" x="964.5" y="283.8857">+lower_pipe : LowerPipe</text><text fill="#000000" font-family="Verdana" font-size="14" lengthAdjust="spacing" textLength="177" x="964.5" y="300.1826">+lower_pipe_height : int</text><text fill="#000000" font-family="Verdana" font-size="14" lengthAdjust="spacing" textLength="159" x="964.5" y="316.4795">+pipe_end_rec : tuple</text><text fill="#000000" font-family="Verdana" font-size="14" lengthAdjust="spacing" textLength="179" x="964.5" y="332.7764">+pipe_end_texture : img</text><text fill="#000000" font-family="Verdana" font-size="14" lengthAdjust="spacing" textLength="179" x="964.5" y="349.0732">+pipe_end_texture : img</text><text fill="#000000" font-family="Verdana" font-size="14" lengthAdjust="spacing" textLength="159" x="964.5" y="365.3701">+pipe_mid_rec : tuple</text><text fill="#000000" font-family="Verdana" font-size="14" lengthAdjust="spacing" textLength="179" x="964.5" y="381.667">+pipe_mid_texture : img</text><text fill="#000000" font-family="Verdana" font-size="14" lengthAdjust="spacing" textLength="179" x="964.5" y="397.9639">+pipe_mid_texture : img</text><text fill="#000000" font-family="Verdana" font-size="14" lengthAdjust="spacing" textLength="183" x="964.5" y="414.2607">+upper_pipe : UpperPipe</text><text fill="#000000" font-family="Verdana" font-size="14" lengthAdjust="spacing" textLength="181" x="964.5" y="430.5576">+upper_pipe_height : int</text><line style="stroke:#000000;stroke-width:1.0;" x1="959.5" x2="1152.5" y1="437.8594" y2="437.8594"/><text fill="#000000" font-family="Verdana" font-size="14" lengthAdjust="spacing" textLength="103" x="964.5" y="454.8545">+draw(screen)</text><text fill="#000000" font-family="Verdana" font-size="14" lengthAdjust="spacing" textLength="106" x="964.5" y="471.1514">+get_masks()y</text><text fill="#000000" font-family="Verdana" font-size="14" lengthAdjust="spacing" textLength="119" x="964.5" y="487.4482">+get_positions()</text><text fill="#000000" font-family="Verdana" font-size="14" lengthAdjust="spacing" textLength="93" x="964.5" y="503.7451">+get_width()</text><text fill="#000000" font-family="Verdana" font-size="14" lengthAdjust="spacing" textLength="61" x="964.5" y="520.042">+get_x()</text><text fill="#000000" font-family="Verdana" font-size="14" lengthAdjust="spacing" textLength="85" x="964.5" y="536.3389">+is_visible()</text><text fill="#000000" font-family="Verdana" font-size="14" lengthAdjust="spacing" textLength="81" x="964.5" y="552.6357">+recycle(x)</text></g><!--class models.Score.Score--><g id="elem_models.Score.Score"><rect codeLine="102" fill="#FFFFFF" height="174.375" id="models.Score.Score" rx="2.5" ry="2.5" style="stroke:#000000;stroke-width:1.0;" width="188" x="498" y="288"/><ellipse cx="567.75" cy="302" fill="#FFFFFF" rx="9" ry="9" style="stroke:#000000;stroke-width:1.0;"/><path d="M570.0938,297.6719 C569.1563,297.2344 568.5625,297.0938 567.6875,297.0938 C565.0625,297.0938 563.0625,299.1719 563.0625,301.8906 L563.0625,303.0156 C563.0625,305.5938 565.1719,307.4844 568.0625,307.4844 C569.2813,307.4844 570.4375,307.1875 571.1875,306.6406 C571.7656,306.2344 572.0938,305.7813 572.0938,305.3906 C572.0938,304.9375 571.7031,304.5469 571.2344,304.5469 C571.0156,304.5469 570.8125,304.625 570.625,304.8125 C570.1719,305.2969 570.1719,305.2969 569.9844,305.3906 C569.5625,305.6563 568.875,305.7813 568.1094,305.7813 C566.0625,305.7813 564.7656,304.6875 564.7656,302.9844 L564.7656,301.8906 C564.7656,300.1094 566.0156,298.7969 567.75,298.7969 C568.3281,298.7969 568.9375,298.9531 569.4063,299.2031 C569.8906,299.4844 570.0625,299.7031 570.1563,300.1094 C570.2188,300.5156 570.25,300.6406 570.3906,300.7656 C570.5313,300.9063 570.7656,301.0156 570.9844,301.0156 C571.25,301.0156 571.5156,300.875 571.6875,300.6563 C571.7969,300.5 571.8281,300.3125 571.8281,299.8906 L571.8281,298.4688 C571.8281,298.0313 571.8125,297.9063 571.7188,297.75 C571.5625,297.4844 571.2813,297.3438 570.9844,297.3438 C570.6875,297.3438 570.4844,297.4375 570.2656,297.75 L570.0938,297.6719 Z " fill="#000000"/><text fill="#000000" font-family="Verdana" font-size="14" lengthAdjust="spacing" textLength="41" x="585.25" y="306.8467">Score</text><line style="stroke:#000000;stroke-width:1.0;" x1="499" x2="685" y1="316" y2="316"/><text fill="#000000" font-family="Verdana" font-size="14" lengthAdjust="spacing" textLength="88" x="504" y="332.9951">+font : Font</text><text fill="#000000" font-family="Verdana" font-size="14" lengthAdjust="spacing" textLength="94" x="504" y="349.292">+margin : int</text><text fill="#000000" font-family="Verdana" font-size="14" lengthAdjust="spacing" textLength="176" x="504" y="365.5889">+score_surface : Surface</text><text fill="#000000" font-family="Verdana" font-size="14" lengthAdjust="spacing" textLength="81" x="504" y="381.8857">+value : int</text><line style="stroke:#000000;stroke-width:1.0;" x1="499" x2="685" y1="389.1875" y2="389.1875"/><text fill="#000000" font-family="Verdana" font-size="14" lengthAdjust="spacing" textLength="108" x="504" y="406.1826">+draw(window)</text><text fill="#000000" font-family="Verdana" font-size="14" lengthAdjust="spacing" textLength="92" x="504" y="422.4795">+get_score()</text><text fill="#000000" font-family="Verdana" font-size="14" lengthAdjust="spacing" textLength="96" x="504" y="438.7764">+increment()</text><text fill="#000000" font-family="Verdana" font-size="14" lengthAdjust="spacing" textLength="59" x="504" y="455.0732">+reset()</text></g><!--class models.UpperPipe.UpperPipe--><g id="elem_models.UpperPipe.UpperPipe"><rect codeLine="112" fill="#FFFFFF" height="92.8906" id="models.UpperPipe.UpperPipe" rx="2.5" ry="2.5" style="stroke:#000000;stroke-width:1.0;" width="134" x="808" y="12"/><ellipse cx="834.5" cy="26" fill="#FFFFFF" rx="9" ry="9" style="stroke:#000000;stroke-width:1.0;"/><path d="M836.8438,21.6719 C835.9063,21.2344 835.3125,21.0938 834.4375,21.0938 C831.8125,21.0938 829.8125,23.1719 829.8125,25.8906 L829.8125,27.0156 C829.8125,29.5938 831.9219,31.4844 834.8125,31.4844 C836.0313,31.4844 837.1875,31.1875 837.9375,30.6406 C838.5156,30.2344 838.8438,29.7813 838.8438,29.3906 C838.8438,28.9375 838.4531,28.5469 837.9844,28.5469 C837.7656,28.5469 837.5625,28.625 837.375,28.8125 C836.9219,29.2969 836.9219,29.2969 836.7344,29.3906 C836.3125,29.6563 835.625,29.7813 834.8594,29.7813 C832.8125,29.7813 831.5156,28.6875 831.5156,26.9844 L831.5156,25.8906 C831.5156,24.1094 832.7656,22.7969 834.5,22.7969 C835.0781,22.7969 835.6875,22.9531 836.1563,23.2031 C836.6406,23.4844 836.8125,23.7031 836.9063,24.1094 C836.9688,24.5156 837,24.6406 837.1406,24.7656 C837.2813,24.9063 837.5156,25.0156 837.7344,25.0156 C838,25.0156 838.2656,24.875 838.4375,24.6563 C838.5469,24.5 838.5781,24.3125 838.5781,23.8906 L838.5781,22.4688 C838.5781,22.0313 838.5625,21.9063 838.4688,21.75 C838.3125,21.4844 838.0313,21.3438 837.7344,21.3438 C837.4375,21.3438 837.2344,21.4375 837.0156,21.75 L836.8438,21.6719 Z " fill="#000000"/><text fill="#000000" font-family="Verdana" font-size="14" lengthAdjust="spacing" textLength="76" x="849.5" y="30.8467">UpperPipe</text><line style="stroke:#000000;stroke-width:1.0;" x1="809" x2="941" y1="40" y2="40"/><text fill="#000000" font-family="Verdana" font-size="14" lengthAdjust="spacing" textLength="122" x="814" y="56.9951">+pipe_end_y: int</text><text fill="#000000" font-family="Verdana" font-size="14" lengthAdjust="spacing" textLength="52" x="814" y="73.292">+x : int</text><line style="stroke:#000000;stroke-width:1.0;" x1="809" x2="941" y1="80.5938" y2="80.5938"/><text fill="#000000" font-family="Verdana" font-size="14" lengthAdjust="spacing" textLength="108" x="814" y="97.5889">+draw(window)</text></g><!--class View.View--><g id="elem_View.View"><rect codeLine="117" fill="#FFFFFF" height="76.5938" id="View.View" rx="2.5" ry="2.5" style="stroke:#000000;stroke-width:1.0;" width="202" x="721" y="336.5"/><ellipse cx="801.25" cy="350.5" fill="#FFFFFF" rx="9" ry="9" style="stroke:#000000;stroke-width:1.0;"/><path d="M803.5938,346.1719 C802.6563,345.7344 802.0625,345.5938 801.1875,345.5938 C798.5625,345.5938 796.5625,347.6719 796.5625,350.3906 L796.5625,351.5156 C796.5625,354.0938 798.6719,355.9844 801.5625,355.9844 C802.7813,355.9844 803.9375,355.6875 804.6875,355.1406 C805.2656,354.7344 805.5938,354.2813 805.5938,353.8906 C805.5938,353.4375 805.2031,353.0469 804.7344,353.0469 C804.5156,353.0469 804.3125,353.125 804.125,353.3125 C803.6719,353.7969 803.6719,353.7969 803.4844,353.8906 C803.0625,354.1563 802.375,354.2813 801.6094,354.2813 C799.5625,354.2813 798.2656,353.1875 798.2656,351.4844 L798.2656,350.3906 C798.2656,348.6094 799.5156,347.2969 801.25,347.2969 C801.8281,347.2969 802.4375,347.4531 802.9063,347.7031 C803.3906,347.9844 803.5625,348.2031 803.6563,348.6094 C803.7188,349.0156 803.75,349.1406 803.8906,349.2656 C804.0313,349.4063 804.2656,349.5156 804.4844,349.5156 C804.75,349.5156 805.0156,349.375 805.1875,349.1563 C805.2969,349 805.3281,348.8125 805.3281,348.3906 L805.3281,346.9688 C805.3281,346.5313 805.3125,346.4063 805.2188,346.25 C805.0625,345.9844 804.7813,345.8438 804.4844,345.8438 C804.1875,345.8438 803.9844,345.9375 803.7656,346.25 L803.5938,346.1719 Z " fill="#000000"/><text fill="#000000" font-family="Verdana" font-size="14" lengthAdjust="spacing" textLength="34" x="818.75" y="355.3467">View</text><line style="stroke:#000000;stroke-width:1.0;" x1="722" x2="922" y1="364.5" y2="364.5"/><text fill="#000000" font-family="Verdana" font-size="14" lengthAdjust="spacing" textLength="190" x="727" y="381.4951">+window : pygame.display</text><line style="stroke:#000000;stroke-width:1.0;" x1="722" x2="922" y1="388.7969" y2="388.7969"/><text fill="#000000" font-family="Verdana" font-size="14" lengthAdjust="spacing" textLength="106" x="727" y="405.792">+get_window()</text></g><!--link models.PipeGenerator.PipeGenerator to controller.Controller--><g id="link_models.PipeGenerator.PipeGenerator_controller.Controller"><path codeLine="121" d="M958.394,538.668 C952.214,548.621 946.048,558.462 940,568 C905.591,622.269 867.327,680.614 831.916,733.831 " fill="none" id="models.PipeGenerator.PipeGenerator-to-controller.Controller" style="stroke:#000000;stroke-width:1.0;"/><polygon fill="#000000" points="824.641,744.754,831.2965,741.9783,831.2941,734.7672,824.6386,737.5429,824.641,744.754" style="stroke:#000000;stroke-width:1.0;"/><text fill="#000000" font-family="Verdana" font-size="13" lengthAdjust="spacing" textLength="86" x="917" y="611.0669">PIPES_ARRAY</text></g><!--link models.LowerPipe.LowerPipe to models.Pipe.Pipe--><g id="link_models.LowerPipe.LowerPipe_models.Pipe.Pipe"><path codeLine="122" d="M600.499,85.81 C562.798,107.3 512.715,140.8 480,182 C468.765,196.148 458.901,212.115 450.302,228.648 " fill="none" id="models.LowerPipe.LowerPipe-to-models.Pipe.Pipe" style="stroke:#000000;stroke-width:1.0;"/><polygon fill="none" points="456.529,231.85,441.463,246.75,443.949,225.707,456.529,231.85" style="stroke:#000000;stroke-width:1.0;"/></g><!--link models.UpperPipe.UpperPipe to models.Pipe.Pipe--><g id="link_models.UpperPipe.UpperPipe_models.Pipe.Pipe"><path codeLine="123" d="M827.883,105.13 C806.902,122.76 780.879,141.24 754,152 C697.137,174.77 528.956,145.19 480,182 C463.602,194.331 450.591,210.67 440.27,228.625 " fill="none" id="models.UpperPipe.UpperPipe-to-models.Pipe.Pipe" style="stroke:#000000;stroke-width:1.0;"/><polygon fill="none" points="446.375,232.061,431,246.642,433.926,225.656,446.375,232.061" style="stroke:#000000;stroke-width:1.0;"/></g><!--link View.View to controller.Controller--><g id="link_View.View_controller.Controller"><path codeLine="124" d="M814.005,413.717 C804.052,460.667 786.112,545.297 767.731,632.01 " fill="none" id="View.View-to-controller.Controller" style="stroke:#000000;stroke-width:1.0;"/><polygon fill="#000000" points="765.016,644.815,770.1733,639.7749,767.5044,633.0758,762.3472,638.116,765.016,644.815" style="stroke:#000000;stroke-width:1.0;"/><text fill="#000000" font-family="Verdana" font-size="13" lengthAdjust="spacing" textLength="33" x="776" y="611.0669">VIEW</text></g><!--link models.Bird.Bird to controller.Controller--><g id="link_models.Bird.Bird_controller.Controller"><path codeLine="125" d="M304.048,550.123 C309.714,556.209 315.376,562.185 321,568 C403.209,652.997 502.031,742.517 579.103,809.811 " fill="none" id="models.Bird.Bird-to-controller.Controller" style="stroke:#000000;stroke-width:1.0;"/><polygon fill="#000000" points="589.349,818.738,587.4524,811.7808,580.3009,810.8557,582.1975,817.8129,589.349,818.738" style="stroke:#000000;stroke-width:1.0;"/><text fill="#000000" font-family="Verdana" font-size="13" lengthAdjust="spacing" textLength="135" x="362" y="611.0669">PLAYER_CHARACTER</text></g><!--link models.LowerPipe.LowerPipe to models.PipeGenerator.PipeGenerator--><g id="link_models.LowerPipe.LowerPipe_models.PipeGenerator.PipeGenerator"><path codeLine="126" d="M703.624,87.79 C740.819,107.46 792.601,133.38 840,152 C883.188,168.97 903.326,153.57 940,182 C942.859,184.22 945.664,186.52 948.414,188.92 " fill="none" id="models.LowerPipe.LowerPipe-to-models.PipeGenerator.PipeGenerator" style="stroke:#000000;stroke-width:1.0;"/><polygon fill="#000000" points="958.132,197.914,956.4453,190.9029,949.3248,189.7634,951.0115,196.7744,958.132,197.914" style="stroke:#000000;stroke-width:1.0;"/><text fill="#000000" font-family="Verdana" font-size="13" lengthAdjust="spacing" textLength="69" x="841" y="148.0669">lower_pipe</text></g><!--link models.Score.Score to controller.Controller--><g id="link_models.Score.Score_controller.Controller"><path codeLine="127" d="M610.286,462.26 C620.217,509.108 633.128,570.018 646.266,631.992 " fill="none" id="models.Score.Score-to-controller.Controller" style="stroke:#000000;stroke-width:1.0;"/><polygon fill="#000000" points="648.983,644.812,651.6518,638.113,646.4946,633.0728,643.8257,639.7719,648.983,644.812" style="stroke:#000000;stroke-width:1.0;"/><text fill="#000000" font-family="Verdana" font-size="13" lengthAdjust="spacing" textLength="44" x="644" y="611.0669">SCORE</text></g><!--link models.UpperPipe.UpperPipe to models.PipeGenerator.PipeGenerator--><g id="link_models.UpperPipe.UpperPipe_models.PipeGenerator.PipeGenerator"><path codeLine="128" d="M901.319,105.23 C915.133,129.23 933.056,160.38 951.783,192.91 " fill="none" id="models.UpperPipe.UpperPipe-to-models.PipeGenerator.PipeGenerator" style="stroke:#000000;stroke-width:1.0;"/><polygon fill="#000000" points="958.434,204.473,958.9108,197.2777,952.4524,194.0701,951.9756,201.2654,958.434,204.473" style="stroke:#000000;stroke-width:1.0;"/><text fill="#000000" font-family="Verdana" font-size="13" lengthAdjust="spacing" textLength="71" x="925" y="148.0669">upper_pipe</text></g><!--SRC=[ZLPBSzis4BxhLx0vgKdiwRc7pZ0CBREZ1qlHJj8B1g9M4ceIO05GijBsltS1Y0GfsOel5F3jBh2FRnVwIU-WWg0kAUCZzSHuJIMjWgAaIeLQIxPgD2I5u4ls7O9VHYC5Ek2q0bNJ0fPWrBMG0HSSHjOgUFU9oVMxWAgW4cierQtPsq_mpoW8FeJpP1RcoM9E7jBFOHwJkop-uo6UHz-2NmF6jT6PPE5ZalU0tnzcANcCfuje02_JBCbZt9TCMO1oLb7D12SRZ0EyvihSZxjgs-w85Dgg8hmf1TKVWpb6aHzhC2fCaR-QgcPyY_AL4AK1MnDIDQLcTSb0jjP6l8TI54mV_RNFVjb3dPT03dYw6XUYuHhapqPIxA1u8XiXII5A30hl6jUi1YjSIteOeyrQ7BezKSQZeWzlGPEAggTnjwk5OiPjXs1aej54RCWARrwhaotP0Tlkj5KnaJjbLT0Io5bQ5Sh-QyiT2QubEWlI5htejhTUuYh_QKAYnNIHOIAKbYSacKryNQ8mDSpm2dVfaaoJMPBtk17EOf94LkjaTa6N-pYPtEVzqgH96Yz9c6MXKMiB_R4ZZf6JIPZwCoooJCCecKzww3Jy5cSakW-pCCfZ4ukXjYLZjCWC5-rl1v2xnJmdo-JFk4TRAvY5sIIPU_GnYR_Wxf71mMo_99_p-tu8Nyb5d2jQF6sbgQ9FnebENccB5IDYRw6MoCY1cZOArZqCoubKGR8XbkBF13ZOxZP2WnEDz2-HjMkzwoNHDaR3-Q1L7FNi0M0FLOvFEyhNI2ZO0zSdYF52uX3YcfnSRs7aB2rnxX3a6RJQEAgERlLtmxHRIS0kaBhFogauW3HHz2TH1_gLOsRRcvtvkQKrylgkLNoARNR0LQ67LAo7l7Kud7UvQM1tttZGtkgr_ZQ8hP7VFllbiP-bGPdFu-q4mvtBm9RMFOP9kXz4TfwVqgIxvLQN-w64l9PK8g50L3Tr2GDSmxDk97Zg_q22vNZnB8E_Rd4XQUhQ1_DWDcqmNd8HZAsgGg83Fw_YyRoCwaTrnExTuzkmAg7bVt4iSFFSA-so4790OGkuholX1iSpEdWdd8SLbLl6lSVAQ1BLo0s-z6QikPMbCYqRkCvOQttMtrspmg1LknJslUr0lt9UTpK-ljH70rUw6yn8jOURnQtvkBES8bhNHpCaRzTCcV7Yas_4rjKtjCNDpVjN7ZySf_xr6LsPHJSt__vsCN56LpBoie6FyffFvhaPNVn5knh5sTjtFPJtRvab-C-j6m2Z5uXwpHttpbxDpXjzy7txFm00]--></g></svg>