<?xml version="1.0" encoding="us-ascii" standalone="no"?><svg xmlns="http://www.w3.org/2000/svg" xmlns:xlink="http://www.w3.org/1999/xlink" contentStyleType="text/css" height="522px" preserveAspectRatio="none" style="width:585px;height:522px;background:#FFFFFF;" version="1.1" viewBox="0 0 585 522" width="585px" zoomAndPan="magnify"><defs/><g><path d="M13.5,237 L48.5,237 A3.75,3.75 0 0 1 51,239.5 L58,259.2969 L62.5,259.2969 A2.5,2.5 0 0 1 65,261.7969 L65,287.0938 A2.5,2.5 0 0 1 62.5,289.5938 L13.5,289.5938 A2.5,2.5 0 0 1 11,287.0938 L11,239.5 A2.5,2.5 0 0 1 13.5,237 " fill="#FFFFFF" style="stroke:#000000;stroke-width:1.0;"/><line style="stroke:#000000;stroke-width:1.0;" x1="11" x2="58" y1="259.2969" y2="259.2969"/><text fill="#000000" font-family="Verdana" font-size="14" lengthAdjust="spacing" textLength="34" x="15" y="251.9951">View</text><path d="M200,124 L272,124 A3.75,3.75 0 0 1 274.5,126.5 L281.5,146.2969 L286,146.2969 A2.5,2.5 0 0 1 288.5,148.7969 L288.5,174.0938 A2.5,2.5 0 0 1 286,176.5938 L200,176.5938 A2.5,2.5 0 0 1 197.5,174.0938 L197.5,126.5 A2.5,2.5 0 0 1 200,124 " fill="#FFFFFF" style="stroke:#000000;stroke-width:1.0;"/><line style="stroke:#000000;stroke-width:1.0;" x1="197.5" x2="281.5" y1="146.2969" y2="146.2969"/><text fill="#000000" font-family="Verdana" font-size="14" lengthAdjust="spacing" textLength="71" x="201.5" y="138.9951">controller</text><path d="M308,11 L414,11 A3.75,3.75 0 0 1 416.5,13.5 L423.5,33.2969 L428,33.2969 A2.5,2.5 0 0 1 430.5,35.7969 L430.5,61.0938 A2.5,2.5 0 0 1 428,63.5938 L308,63.5938 A2.5,2.5 0 0 1 305.5,61.0938 L305.5,13.5 A2.5,2.5 0 0 1 308,11 " fill="#FFFFFF" style="stroke:#000000;stroke-width:1.0;"/><line style="stroke:#000000;stroke-width:1.0;" x1="305.5" x2="423.5" y1="33.2969" y2="33.2969"/><text fill="#000000" font-family="Verdana" font-size="14" lengthAdjust="spacing" textLength="105" x="309.5" y="25.9951">export_to_exe</text><path d="M218,11 L254,11 A3.75,3.75 0 0 1 256.5,13.5 L263.5,33.2969 L268,33.2969 A2.5,2.5 0 0 1 270.5,35.7969 L270.5,61.0938 A2.5,2.5 0 0 1 268,63.5938 L218,63.5938 A2.5,2.5 0 0 1 215.5,61.0938 L215.5,13.5 A2.5,2.5 0 0 1 218,11 " fill="#FFFFFF" style="stroke:#000000;stroke-width:1.0;"/><line style="stroke:#000000;stroke-width:1.0;" x1="215.5" x2="263.5" y1="33.2969" y2="33.2969"/><text fill="#000000" font-family="Verdana" font-size="14" lengthAdjust="spacing" textLength="35" x="219.5" y="25.9951">main</text><path d="M102.5,237 L189.5,237 A3.75,3.75 0 0 1 192,239.5 L199,259.2969 L203.5,259.2969 A2.5,2.5 0 0 1 206,261.7969 L206,287.0938 A2.5,2.5 0 0 1 203.5,289.5938 L102.5,289.5938 A2.5,2.5 0 0 1 100,287.0938 L100,239.5 A2.5,2.5 0 0 1 102.5,237 " fill="#FFFFFF" style="stroke:#000000;stroke-width:1.0;"/><line style="stroke:#000000;stroke-width:1.0;" x1="100" x2="199" y1="259.2969" y2="259.2969"/><text fill="#000000" font-family="Verdana" font-size="14" lengthAdjust="spacing" textLength="86" x="104" y="251.9951">models.Bird</text><path d="M165.5,350 L298.5,350 A3.75,3.75 0 0 1 301,352.5 L308,372.2969 L312.5,372.2969 A2.5,2.5 0 0 1 315,374.7969 L315,400.0938 A2.5,2.5 0 0 1 312.5,402.5938 L165.5,402.5938 A2.5,2.5 0 0 1 163,400.0938 L163,352.5 A2.5,2.5 0 0 1 165.5,350 " fill="#FFFFFF" style="stroke:#000000;stroke-width:1.0;"/><line style="stroke:#000000;stroke-width:1.0;" x1="163" x2="308" y1="372.2969" y2="372.2969"/><text fill="#000000" font-family="Verdana" font-size="14" lengthAdjust="spacing" textLength="132" x="167" y="364.9951">models.LowerPipe</text><path d="M281,463 L371,463 A3.75,3.75 0 0 1 373.5,465.5 L380.5,485.2969 L385,485.2969 A2.5,2.5 0 0 1 387.5,487.7969 L387.5,513.0938 A2.5,2.5 0 0 1 385,515.5938 L281,515.5938 A2.5,2.5 0 0 1 278.5,513.0938 L278.5,465.5 A2.5,2.5 0 0 1 281,463 " fill="#FFFFFF" style="stroke:#000000;stroke-width:1.0;"/><line style="stroke:#000000;stroke-width:1.0;" x1="278.5" x2="380.5" y1="485.2969" y2="485.2969"/><text fill="#000000" font-family="Verdana" font-size="14" lengthAdjust="spacing" textLength="89" x="282.5" y="477.9951">models.Pipe</text><path d="M244,237 L408,237 A3.75,3.75 0 0 1 410.5,239.5 L417.5,259.2969 L422,259.2969 A2.5,2.5 0 0 1 424.5,261.7969 L424.5,287.0938 A2.5,2.5 0 0 1 422,289.5938 L244,289.5938 A2.5,2.5 0 0 1 241.5,287.0938 L241.5,239.5 A2.5,2.5 0 0 1 244,237 " fill="#FFFFFF" style="stroke:#000000;stroke-width:1.0;"/><line style="stroke:#000000;stroke-width:1.0;" x1="241.5" x2="417.5" y1="259.2969" y2="259.2969"/><text fill="#000000" font-family="Verdana" font-size="14" lengthAdjust="spacing" textLength="163" x="245.5" y="251.9951">models.PipeGenerator</text><path d="M462.5,237 L561.5,237 A3.75,3.75 0 0 1 564,239.5 L571,259.2969 L575.5,259.2969 A2.5,2.5 0 0 1 578,261.7969 L578,287.0938 A2.5,2.5 0 0 1 575.5,289.5938 L462.5,289.5938 A2.5,2.5 0 0 1 460,287.0938 L460,239.5 A2.5,2.5 0 0 1 462.5,237 " fill="#FFFFFF" style="stroke:#000000;stroke-width:1.0;"/><line style="stroke:#000000;stroke-width:1.0;" x1="460" x2="571" y1="259.2969" y2="259.2969"/><text fill="#000000" font-family="Verdana" font-size="14" lengthAdjust="spacing" textLength="98" x="464" y="251.9951">models.Score</text><path d="M353,350 L487,350 A3.75,3.75 0 0 1 489.5,352.5 L496.5,372.2969 L501,372.2969 A2.5,2.5 0 0 1 503.5,374.7969 L503.5,400.0938 A2.5,2.5 0 0 1 501,402.5938 L353,402.5938 A2.5,2.5 0 0 1 350.5,400.0938 L350.5,352.5 A2.5,2.5 0 0 1 353,350 " fill="#FFFFFF" style="stroke:#000000;stroke-width:1.0;"/><line style="stroke:#000000;stroke-width:1.0;" x1="350.5" x2="496.5" y1="372.2969" y2="372.2969"/><text fill="#000000" font-family="Verdana" font-size="14" lengthAdjust="spacing" textLength="133" x="354.5" y="364.9951">models.UpperPipe</text><!--link controller to View--><g id="link_controller_View"><path codeLine="23" d="M197.302,175.193 C164.941,192.111 120.602,215.574 82,237 C78.0316,239.203 73.8828,241.549 69.786,243.892 " fill="none" id="controller-to-View" style="stroke:#000000;stroke-width:1.0;"/><polygon fill="#000000" points="65.372,246.427,75.1686,245.4135,69.7078,243.9369,71.1845,238.4762,65.372,246.427" style="stroke:#000000;stroke-width:1.0;"/></g><!--link controller to models.Bird--><g id="link_controller_models.Bird"><path codeLine="24" d="M222.126,177.245 C208.722,193.776 191.264,215.308 177.246,232.597 " fill="none" id="controller-to-models.Bird" style="stroke:#000000;stroke-width:1.0;"/><polygon fill="#000000" points="173.761,236.895,182.5365,232.4238,176.9102,233.0114,176.3227,227.3851,173.761,236.895" style="stroke:#000000;stroke-width:1.0;"/></g><!--link controller to models.PipeGenerator--><g id="link_controller_models.PipeGenerator"><path codeLine="25" d="M263.874,177.245 C277.278,193.776 294.736,215.308 308.754,232.597 " fill="none" id="controller-to-models.PipeGenerator" style="stroke:#000000;stroke-width:1.0;"/><polygon fill="#000000" points="312.239,236.895,309.6773,227.3851,309.0898,233.0114,303.4635,232.4238,312.239,236.895" style="stroke:#000000;stroke-width:1.0;"/></g><!--link controller to models.Score--><g id="link_controller_models.Score"><path codeLine="26" d="M288.576,169.829 C333.963,188.083 404.036,216.264 454.995,236.759 " fill="none" id="controller-to-models.Score" style="stroke:#000000;stroke-width:1.0;"/><polygon fill="#000000" points="459.865,238.718,453.0078,231.6485,455.2262,236.8522,450.0225,239.0706,459.865,238.718" style="stroke:#000000;stroke-width:1.0;"/></g><!--link main to controller--><g id="link_main_controller"><path codeLine="27" d="M243,64.245 C243,80.496 243,101.579 243,118.714 " fill="none" id="main-to-controller" style="stroke:#000000;stroke-width:1.0;"/><polygon fill="#000000" points="243,123.895,247,114.895,243,118.895,239,114.895,243,123.895" style="stroke:#000000;stroke-width:1.0;"/></g><!--link models.LowerPipe to models.Pipe--><g id="link_models.LowerPipe_models.Pipe"><path codeLine="28" d="M260.802,403.245 C274.92,419.9161 293.345,441.6732 308.048,459.0352 " fill="none" id="models.LowerPipe-to-models.Pipe" style="stroke:#000000;stroke-width:1.0;"/><polygon fill="#000000" points="311.316,462.895,308.5523,453.4419,308.0848,459.0794,302.4473,458.6118,311.316,462.895" style="stroke:#000000;stroke-width:1.0;"/></g><!--link models.PipeGenerator to models.LowerPipe--><g id="link_models.PipeGenerator_models.LowerPipe"><path codeLine="29" d="M311.198,290.245 C297.08,306.916 278.655,328.673 263.952,346.035 " fill="none" id="models.PipeGenerator-to-models.LowerPipe" style="stroke:#000000;stroke-width:1.0;"/><polygon fill="#000000" points="260.684,349.895,269.5528,345.612,263.9153,346.0794,263.4479,340.4419,260.684,349.895" style="stroke:#000000;stroke-width:1.0;"/></g><!--link models.PipeGenerator to models.UpperPipe--><g id="link_models.PipeGenerator_models.UpperPipe"><path codeLine="30" d="M354.802,290.245 C368.92,306.916 387.345,328.673 402.048,346.035 " fill="none" id="models.PipeGenerator-to-models.UpperPipe" style="stroke:#000000;stroke-width:1.0;"/><polygon fill="#000000" points="405.316,349.895,402.5521,340.4419,402.0847,346.0794,396.4472,345.612,405.316,349.895" style="stroke:#000000;stroke-width:1.0;"/></g><!--link models.UpperPipe to models.Pipe--><g id="link_models.UpperPipe_models.Pipe"><path codeLine="31" d="M405.198,403.245 C391.08,419.9161 372.655,441.6732 357.952,459.0352 " fill="none" id="models.UpperPipe-to-models.Pipe" style="stroke:#000000;stroke-width:1.0;"/><polygon fill="#000000" points="354.684,462.895,363.5527,458.6118,357.9152,459.0794,357.4477,453.4419,354.684,462.895" style="stroke:#000000;stroke-width:1.0;"/></g><!--SRC=[XP713e8m44Jl_OhA7J_1WnSl7aoCNaq34oL2jobD837-kx0cXPQYjtRsJNTtkd4FD92cLfKMBPpKga5hL84pZBBAaPMQDCGWFTKTChjMw3AfMZaUv4kyfr91sbcgQrW6fck8eJTatStH3JsO39GGReR1c1aFKObArErsNzdoIqpt97Ya3lPK6SnfBoOjCVqJF4234uiTlf2qdWkoGHCMakZ5cEK6NcJBBFGyt_4dnTeifvLICFGAmrCA_fLHdI2nI3PwMIIZcK7U-PVqkuj5657J3m00]--></g></svg>